<svg width="145" height="30" viewBox="0 0 145 30" fill="none" xmlns="http://www.w3.org/2000/svg">
<path fill-rule="evenodd" clip-rule="evenodd" d="M34.6812 3.91304C34.6812 1.75193 32.864 0 30.6223 0H4.05888C1.81722 0 0 1.75193 0 3.91304V16.3245C0.624776 17.1762 1.24561 18.0438 1.86248 18.9271C2.3261 19.5846 2.81887 20.2525 3.3408 20.9307C3.78726 21.5109 5.18128 21.2554 5.45127 20.5443C5.57327 20.2229 5.69443 19.8981 5.81473 19.5698C6.1949 18.5324 6.72997 17.3046 7.41996 15.8861C7.5286 15.6237 7.72018 15.4066 7.9947 15.2347C8.29221 15.0393 8.63181 14.8985 9.01334 14.8122C9.34042 14.7382 9.66655 14.7193 9.99167 14.7555C10.344 14.7856 10.643 14.8917 10.8887 15.074C11.9071 15.8316 12.8478 16.625 13.711 17.4543C14.0804 17.7901 14.4577 18.1274 14.8428 18.4661C15.4228 18.9762 16.778 18.604 16.9098 17.8977C17.0673 17.053 17.2028 16.2309 17.3164 15.4312C17.3697 15.0432 17.4396 14.5145 17.518 13.922C17.7293 12.3239 18.002 10.262 18.1749 9.24861C18.256 8.75465 18.4431 8.40124 18.7365 8.18857C19.0255 7.95848 19.429 7.78487 19.9468 7.66774C20.4102 7.56294 20.8128 7.56333 21.1549 7.66891C21.4927 7.75715 21.6954 7.94002 21.7629 8.21746C21.8178 8.44291 21.8194 8.86331 21.7679 9.4787C21.7394 10.0706 21.666 10.7733 21.5477 11.5867L21.512 11.8839C21.3873 12.9233 21.1062 15.2665 20.9698 16.0867C20.8453 16.993 20.6988 17.8678 20.5301 18.7109C20.3888 19.5479 20.2441 20.3124 20.0962 21.0045C19.9484 21.6966 19.8307 22.2172 19.7431 22.5663C19.6222 23.0145 19.435 23.3678 19.1816 23.6264C18.9324 23.9023 18.4944 24.1112 17.8675 24.253C17.2951 24.3824 16.7844 24.3516 16.3353 24.1605C15.882 23.952 15.4432 23.6853 15.0191 23.3605C14.8763 23.2464 14.6422 23.0524 14.3167 22.7784C13.9912 22.5044 13.5964 22.1821 13.1324 21.8114C12.6956 21.4345 12.2073 21.0235 11.6677 20.5785C11.5986 20.5177 11.5292 20.4567 11.4596 20.3957C10.9193 19.9222 9.65329 20.2055 9.34556 20.8582C9.30227 20.95 9.25863 21.0417 9.21466 21.1334C8.9367 21.7634 8.67747 22.3526 8.43712 22.901C8.1925 23.432 7.97406 23.893 7.78167 24.2842C7.61655 24.6691 7.4964 24.9433 7.42111 25.1067C7.19111 25.5795 6.92119 26.0065 6.61138 26.3875C6.32459 26.7452 5.88138 26.9918 5.28176 27.1274C4.32781 27.3432 3.50846 27.1077 2.82372 26.4211C2.55697 26.1521 2.19983 25.7481 1.7523 25.2089C1.30056 24.6525 0.8183 24.0298 0.305531 23.3408C0.203937 23.2043 0.102092 23.0667 0 22.9282V26.087C0 28.2481 1.81722 30 4.05888 30H30.6223C32.864 30 34.6812 28.2481 34.6812 26.087V3.91304ZM26.396 5.05112C26.2773 5.13031 26.2753 5.30021 26.3928 5.38141C27.2535 5.97633 27.8411 6.47145 28.4412 7.3335C28.5246 7.45324 28.7091 7.45572 28.794 7.33722C29.4143 6.47126 29.9256 5.98392 30.8242 5.38417C30.9444 5.30393 30.9444 5.13107 30.8241 5.0505C29.9244 4.44763 29.4068 3.95723 28.7836 3.08564C28.7003 2.9692 28.5206 2.96835 28.4369 3.08423C27.8106 3.95129 27.3095 4.44138 26.396 5.05112Z" fill="#525ecc"/>
<path d="M115.922 4.3814C115.804 4.3002 115.806 4.1303 115.924 4.05111C116.838 3.44137 117.339 2.95128 117.965 2.08422C118.049 1.96834 118.229 1.96919 118.312 2.08563C118.935 2.95722 119.453 3.44762 120.352 4.05049C120.473 4.13106 120.473 4.30393 120.352 4.38416C119.454 4.98391 118.943 5.47125 118.322 6.33721C118.238 6.45571 118.053 6.45323 117.97 6.33349C117.37 5.47144 116.782 4.97632 115.922 4.3814Z" fill="#525ecc"/>
<path d="M68.0193 9.28564L64.8676 22.1689H59.2449L57.8833 16.3836C57.4546 14.5362 57.0933 12.6807 57.0933 12.6807C57.0933 12.6807 56.7067 14.5605 56.278 16.3593L54.9164 22.1689H49.319L46.1672 9.28564H50.3528L51.4117 15.6057C51.6891 17.3316 52.1429 20.5403 52.1429 20.5403C52.1429 20.5403 52.6724 17.3316 53.101 15.6057L54.6391 9.28564H59.5474L61.0854 15.6057C61.5645 17.5504 62.0436 20.5403 62.0436 20.5403C62.0436 20.5403 62.4218 17.5504 62.7748 15.6057L63.8842 9.28564H68.0193Z" fill="#525ecc"/>
<path d="M81.0443 22.1688H77.716L77.3378 20.7103C77.3378 20.7103 76.0775 22.4119 73.4805 22.4119C71.3875 22.4119 68.6897 21.95 68.6897 18.3768C68.6897 14.5118 72.2953 13.9527 74.6908 13.9527H77.2627V13.3207C77.2627 12.2025 76.733 11.8865 74.8673 11.8865C72.825 11.8865 69.9504 12.6887 69.9504 12.6887V9.86898C69.9504 9.86898 72.4469 9.04248 75.4721 9.04248C79.1028 9.04248 81.0443 10.3308 81.0443 13.7096V22.1688ZM77.2627 18.5955V16.0432L75.7494 16.0675C73.7322 16.0918 72.4719 16.262 72.4719 18.1337C72.4719 19.3005 73.2789 19.6894 74.4892 19.6894C75.926 19.6894 77.2627 18.5955 77.2627 18.5955Z" fill="#525ecc"/>
<path d="M97.3048 22.1688H93.5226V13.5881C93.5226 12.713 93.346 12.1053 92.01 12.1053C89.7404 12.1053 87.9754 13.3937 87.9754 13.3937V22.1688H84.1932V9.28555H87.2692L87.8997 10.8413C87.8997 10.8413 90.1436 9.04248 92.8414 9.04248C95.6657 9.04248 97.3048 10.2336 97.3048 13.3693V22.1688Z" fill="#525ecc"/>
<path d="M113.072 22.169H109.97L109.567 20.8564C109.567 20.8564 108.18 22.4121 105.633 22.4121C103.338 22.4121 99.7076 21.7315 99.7076 15.7274C99.7076 9.86916 103.994 9.04266 105.885 9.04266C108.205 9.04266 109.289 10.0879 109.289 10.0879V4.66724H113.072V22.169ZM109.289 18.5957V12.6889C109.289 12.6889 108.053 11.7652 106.389 11.7652C105.002 11.7652 103.49 12.2999 103.49 15.7274C103.49 19.0819 104.902 19.6653 106.389 19.6653C107.751 19.6653 109.289 18.5957 109.289 18.5957Z" fill="#525ecc"/>
<path d="M120.123 22.1689H116.341V9.28564H120.123V22.1689Z" fill="#525ecc"/>
<path d="M132.732 7.72995C132.732 7.72995 130.64 7.19517 129.379 7.19517C128.496 7.19517 127.815 7.48688 127.815 8.43488V9.28564H131.472L131.093 11.8137H127.815V22.1689H124.033V11.8137H121.134V9.28564H124.033V8.48354C124.033 5.32347 126.454 4.42407 129.051 4.42407C131.093 4.42407 132.732 5.05608 132.732 5.05608V7.72995Z" fill="#525ecc"/>
<path d="M144.334 9.28564L139.342 23.4816C138.46 26.0096 136.644 27.0305 133.971 27.0305C132.358 27.0305 130.24 26.4957 130.24 26.4957V23.676C130.24 23.676 132.383 24.1865 133.618 24.1865C134.904 24.1865 135.863 23.5788 136.089 22.5578L130.088 9.28564H134.728L137.628 18.5714L139.947 9.28564H144.334Z" fill="#525ecc"/>
</svg>
